{"title":"Vikings 2 sezon (2014) Blu-ray Remux 1080p &amp;ndash; MediaClub","uid":11222728,"size":78203426229,"categoryP":"video","categoryS":"hd___movies","magnet":"?xt=urn:btih:ad05b1f9f627eebe041d0dd3d35afb0b7db7854e&amp;dn=Vikings+2+sezon+%282014%29+Blu-ray+Remux+1080p+%26ndash%3B+MediaClub&amp;tr=udp%3A%2F%2Ftracker.openbittorrent.com%3A80&amp;tr=udp%3A%2F%2Fopen.demonii.com%3A1337&amp;tr=udp%3A%2F%2Ftracker.coppersurfer.tk%3A6969&amp;tr=udp%3A%2F%2Fexodus.desync.com%3A6969","seeders":4,"leechers":1,"uploader":"neni69","files":10,"time":1413405484,"description":" &lt;a href=&quot; http://mediaclub.tv/&quot; rel=&quot;nofollow&quot; target=&quot;_NEW&quot;&gt; http://mediaclub.tv/&lt;/a&gt;   Welcome to MediaClub\n\n===================================================================\n                               (RUS, ENG)\n\nC:Vikings.s02.BluRay.Remux.(1080p)Vikings.s02e01.2014.x264.BluRay.Remux.mkv\n   General\n      Complete name : C:VideosVikings.s02.BluRay.Remux.(1080p)Vikings.s02e01.2014.x264.BluRay.Remux.mkv\n      Format : Matroska\n      File size : 6.64 GiB\n      Duration : 44mn 9s\n      Overall bit rate : 21.5 Mbps\n      Movie name : =MediaClub= by =parravoz=\n      Encoded date : UTC 2014-09-29 04:27:30\n      Writing application : mkvmerge v5.8.0 ('No Sleep / Pillow') built on Sep  2 2012 15:37:04\n      Writing library : libebml v1.2.3 + libmatroska v1.3.0\n      Cover : Yes\n   Video #1\n      ID : 1\n      Format : AVC\n      Format/Info : Advanced Video Codec\n      Format profile : &lt;a class=&quot;__cf_email__&quot; href=&quot;/cdn-cgi/l/email-protection&quot; data-cfemail=&quot;e8a0818f80a8a4dcc6d9&quot;&gt;[email&amp;#160;protected]&lt;/a&gt;&lt;script cf-hash='f9e31' type=&quot;text/javascript&quot;&gt;\n/* &lt;![CDATA[ */!function(){try{var t=&quot;currentScript&quot;in document?document.currentScript:function(){for(var t=document.getElementsByTagName(&quot;script&quot;),e=t.length;e--;)if(t[e].getAttribute(&quot;cf-hash&quot;))return t[e]}();if(t&amp;&amp;t.previousSibling){var e,r,n,i,c=t.previousSibling,a=c.getAttribute(&quot;data-cfemail&quot;);if(a){for(e=&quot;&quot;,r=parseInt(a.substr(0,2),16),n=2;a.length-n;n+=2)i=parseInt(a.substr(n,2),16)^r,e+=String.fromCharCode(i);e=document.createTextNode(e),c.parentNode.replaceChild(e,c)}}}catch(u){}}();/* ]]&gt; */&lt;/script&gt;\n      Format settings, CABAC : Yes\n      Format settings, ReFrames : 4 frames\n      Muxing mode : Container profile=&lt;a class=&quot;__cf_email__&quot; href=&quot;/cdn-cgi/l/email-protection&quot; data-cfemail=&quot;5603383d3839213816627867&quot;&gt;[email&amp;#160;protected]&lt;/a&gt;&lt;script cf-hash='f9e31' type=&quot;text/javascript&quot;&gt;\n/* &lt;![CDATA[ */!function(){try{var t=&quot;currentScript&quot;in document?document.currentScript:function(){for(var t=document.getElementsByTagName(&quot;script&quot;),e=t.length;e--;)if(t[e].getAttribute(&quot;cf-hash&quot;))return t[e]}();if(t&amp;&amp;t.previousSibling){var e,r,n,i,c=t.previousSibling,a=c.getAttribute(&quot;data-cfemail&quot;);if(a){for(e=&quot;&quot;,r=parseInt(a.substr(0,2),16),n=2;a.length-n;n+=2)i=parseInt(a.substr(n,2),16)^r,e+=String.fromCharCode(i);e=document.createTextNode(e),c.parentNode.replaceChild(e,c)}}}catch(u){}}();/* ]]&gt; */&lt;/script&gt;\n      Codec ID : V_MPEG4/ISO/AVC\n      Duration : 44mn 7s\n      Bit rate : 17.8 Mbps\n      Width : 1 920 pixels\n      Height : 1 080 pixels\n      Display aspect ratio : 16:9\n      Frame rate : 23.976 fps\n      Resolution : 8 bits\n      Colorimetry : 4:2:0\n      Scan type : Progressive\n      Bits/(Pixel*Frame) : 0.358\n      Stream size : 5.48 GiB (83%)\n      Title : Vikings / season - 2 / series - 01 / Bratskaya Voyna\n   Audio #2\n      ID : 2\n      Format : AC-3\n      Format/Info : Audio Coding 3\n      Codec ID : A_AC3\n      Duration : 44mn 9s\n      Bit rate mode : Constant\n      Bit rate : 448 Kbps\n      Channel(s) : 6 channels\n      Channel positions : Front: L C R, Surround: L R, LFE\n      Sampling rate : 48.0 KHz\n      Stream size : 142 MiB (2%)\n      Title : MVO (AlexFilm)\n      Language : Russian\n   Audio #3\n      ID : 3\n      Format : AC-3\n      Format/Info : Audio Coding 3\n      Codec ID : A_AC3\n      Duration : 44mn 9s\n      Bit rate mode : Constant\n      Bit rate : 448 Kbps\n      Channel(s) : 6 channels\n      Channel positions : Front: L C R, Surround: L R, LFE\n      Sampling rate : 48.0 KHz\n      Stream size : 142 MiB (2%)\n      Title : MVO (NewStudio)\n      Language : Russian\n   Audio #4\n      ID : 4\n      Format : AC-3\n      Format/Info : Audio Coding 3\n      Codec ID : A_AC3\n      Duration : 44mn 9s\n      Bit rate mode : Constant\n      Bit rate : 448 Kbps\n      Channel(s) : 6 channels\n      Channel positions : Front: L C R, Surround: L R, LFE\n      Sampling rate : 48.0 KHz\n      Stream size : 142 MiB (2%)\n      Title : MVO (LostFilm)\n      Language : Russian\n   Audio #5\n      ID : 5\n      Format : AC-3\n      Format/Info : Audio Coding 3\n      Codec ID : A_AC3\n      Duration : 44mn 9s\n      Bit rate mode : Constant\n      Bit rate : 448 Kbps\n      Channel(s) : 6 channels\n      Channel positions : Front: L C R, Surround: L R, LFE\n      Sampling rate : 48.0 KHz\n      Stream size : 142 MiB (2%)\n      Title : MVO (BaibaKo)\n      Language : Russian\n   Audio #6\n      ID : 6\n      Format : DTS\n      Format/Info : Digital Theater Systems\n      Codec ID : A_DTS\n      Duration : 44mn 9s\n      Bit rate mode : Constant\n      Bit rate : 1 510 Kbps\n      Channel(s) : 6 channels\n      Channel positions : Front: L C R, Surround: L R, LFE\n      Sampling rate : 48.0 KHz\n      Resolution : 24 bits\n      Stream size : 477 MiB (7%)\n      Title : Original (ENG)\n   Text #7\n      ID : 7\n      Format : UTF-8\n      Codec ID : S_TEXT/UTF8\n      Codec ID/Info : UTF-8 Plain Text\n      Title : Notabenoid\n      Language : Russian\n   Text #8\n      ID : 8\n      Format : UTF-8\n      Codec ID : S_TEXT/UTF8\n      Codec ID/Info : UTF-8 Plain Text\n      Title : _Rip_by_paravoz","torrent":{"xt":"urn:btih:ad05b1f9f627eebe041d0dd3d35afb0b7db7854e","amp;dn":"Vikings+2+sezon+%282014%29+Blu-ray+Remux+1080p+%26ndash%3B+MediaClub","amp;tr":["udp%3A%2F%2Ftracker.openbittorrent.com%3A80","udp%3A%2F%2Fopen.demonii.com%3A1337","udp%3A%2F%2Ftracker.coppersurfer.tk%3A6969","udp%3A%2F%2Fexodus.desync.com%3A6969"],"infoHash":"ad05b1f9f627eebe041d0dd3d35afb0b7db7854e","infoHashBuffer":{"type":"Buffer","data":[173,5,177,249,246,39,238,190,4,29,13,211,211,90,251,11,125,183,133,78]},"announce":[],"urlList":[]}}